# xmcd CD database file
#
# Track frame offsets:
#	150
#	14825
#	28307
#	43495
#	61805
#	78443
#	96006
#	110533
#	128353
#	141699
#	158681
#	171002
#	188829
#
# Disc length: 2781 seconds
#
# Revision: 3
# Processed by: cddbd v1.5.2PL0 Copyright (c) Steve Scherf et al.
# Submitted via: CDex 1.51
#
DISCID=b30adb0d
DTITLE=George Strait - Honky Tonk Time Machine
DYEAR=2019
DGENRE=Country
TTITLE0=George Strait - Every Little Honky Tonk Bar
TTITLE1=George Strait - Two More Wishes
TTITLE2=George Strait - Some Nights
TTITLE3=George Strait - God And Country Music
TTITLE4=George Strait - Blue Water
TTITLE5=George Strait - Sometimes Love
TTITLE6=George Strait - Codigo
TTITLE7=George Strait - Old Violin
TTITLE8=George Strait - Take Me Away
TTITLE9=George Strait - The Weight Of The Badge
TTITLE10=George Strait - Honky Tonk Time Machine
TTITLE11=George Strait - What Goes Up
TTITLE12=George Strait feat. Willie Nelson - Sing One With Willie
EXTD=YEAR: 2019
EXTT0=
EXTT1=
EXTT2=
EXTT3=
EXTT4=
EXTT5=
EXTT6=
EXTT7=
EXTT8=
EXTT9=
EXTT10=
EXTT11=
EXTT12=
PLAYORDER=
